HIERARCHY
ROOT Hips
{
	OFFSET	0.00	0.00	0.00
	CHANNELS 6 Xposition Yposition Zposition Zrotation Xrotation Yrotation
	JOINT Spine
	{
		OFFSET	 0.00	0.01	 0.00
		CHANNELS 3 Zrotation Xrotation Yrotation
		JOINT Spine1
		{
			OFFSET	 0.00	 2.45913012437421	 0.00
			CHANNELS 3 Zrotation Xrotation Yrotation
            JOINT Neck
            {
                OFFSET	 0.00	 2.48462964506057	 0.00
                CHANNELS 3 Zrotation Xrotation Yrotation
                JOINT Head
                {
                    OFFSET	 0.00	 0.927524780924562	 0.00
                    CHANNELS 3 Zrotation Xrotation Yrotation
                    End Site 
                    {
                        OFFSET	 0.00	 1.14999962169752	 0.00
                    }
                }
            }
			JOINT LeftShoulder
			{
				OFFSET	 0.00	 2.48462964506057	 0.00
				CHANNELS 3 Zrotation Xrotation Yrotation
				JOINT LeftUpArm
				{
					OFFSET	 0.00	 1.24881979654096	 0.00
					CHANNELS 3 Zrotation Xrotation Yrotation
					JOINT LeftForeArm
					{
						OFFSET	 0.00	2.59758046908119	 0.00
						CHANNELS 3 Zrotation Xrotation Yrotation
						JOINT LeftHand
						{
							OFFSET	 0.00	2.45542024364365	 0.00
							CHANNELS 3 Zrotation Xrotation Yrotation
							JOINT LeftHandThumb 
							{
								OFFSET	 0.00	0.00	 0.00
								CHANNELS 3 Zrotation Xrotation Yrotation
								End Site
								{
									OFFSET	 0.00	0.00	1.00000003353624
								}
							}
							JOINT L_Wrist_End 
							{
								OFFSET	 0.00	0.99999967115358	 0.00
								CHANNELS 3 Zrotation Xrotation Yrotation
								End Site 
								{
									OFFSET	 0.00	 0.00	 0.00
								}
							}
						}
					}
				}
			}
			JOINT RightShoulder
			{
				OFFSET	 0.00	 2.48462964506057	 0.00
				CHANNELS 3 Zrotation Xrotation Yrotation
				JOINT RightUpArm
				{
					OFFSET	 0.00	 1.24881979654096	 0.00
					CHANNELS 3 Zrotation Xrotation Yrotation
					JOINT RightForeArm
					{
						OFFSET	 0.00	2.59758046908119	 0.00
						CHANNELS 3 Zrotation Xrotation Yrotation
						JOINT RightHand
						{
							OFFSET	 0.00	2.45542024364365	 0.00
							CHANNELS 3 Zrotation Xrotation Yrotation
							JOINT RightHandThumb 
							{
								OFFSET	 0.00	0.00	 0.00
								CHANNELS 3 Zrotation Xrotation Yrotation
								End Site
								{
									OFFSET	 0.00	0.00	1.00000003353624
								}
							}
							JOINT R_Wrist_End 
							{
								OFFSET	 0.00	0.99999967115358	 0.00
								CHANNELS 3 Zrotation Xrotation Yrotation
								End Site 
								{
									OFFSET	 0.00	 0.00	 0.00
								}
							}
						}
					}
				}
			}
		}
	}
	JOINT LeftUpLeg
	{
		OFFSET	 1.2719394002717	 0.00	 0.00
		CHANNELS 3 Zrotation Xrotation Yrotation
		JOINT LeftLowLeg
		{
			OFFSET	 0.00	-4.3429100912261	 0.00
			CHANNELS 3 Zrotation Xrotation Yrotation
			JOINT LeftFoot
			{
				OFFSET	 0.00	-4.48767017425826	 0.00
				CHANNELS 3 Zrotation Xrotation Yrotation
				JOINT LeftToeBase
                {
                    OFFSET	 0.00	0.00	 1.51507020887566
                    CHANNELS 3 Zrotation Xrotation Yrotation
                    End Site 
                    {
                        OFFSET	 0.00	0.00	 0.75000010571191
                    }
                }
			}
		}
	}
	JOINT RightUpLeg
	{
		OFFSET	 -1.2719393604653	 0.00	 0.00
		CHANNELS 3 Zrotation Xrotation Yrotation
		JOINT RightLowLeg
		{
			OFFSET	 0.00	-4.3429100912261	 0.00
			CHANNELS 3 Zrotation Xrotation Yrotation
			JOINT RightFoot
			{
				OFFSET	 0.00	-4.48767017425826	 0.00
				CHANNELS 3 Zrotation Xrotation Yrotation
				JOINT RightToeBase
                {
                    OFFSET	 0.00	0.00	 1.51507020887566
                    CHANNELS 3 Zrotation Xrotation Yrotation
                    End Site 
                    {
                        OFFSET	 0.00	0.00	 0.749999965609858
                    }
                }   
			}
		}
	}
}
MOTION 
Frames:	20 
Frame Time: 0.02 
 -4.7536099243164065 -13.139300537109374 9.220089721679688 168.137 87.0756 -796.064 -1.18616 -14.5011 -2.70603 -6.11177 18.6726 4.886 33.8177 54.0562 339.361 -75.2481 -77.6597 653.114 -113.9666 -4.81743 365.621 -47.2008 11.1534 4.4105 0.0 18.3687 0.0 22.9491 -17.173 3.49803 0.0 0.0 0.0 0.0 0.0 0.0 119.6438 -6.60965 -363.096 46.3963 2.56219 -361.894 0.0 21.0731 0.0 6.05877 -10.058 16.6751 0.0 0.0 0.0 0.0 0.0 0.0 -5.16021 0.204629 -721.746 0.0 17.5036 0.0 -2.01628 -1.4071999 16.2828 0.0 -34.076 0.0 0.439565 -4.4505 24.736 0.0 26.8634 0.0 35.5364 -18.930801 -6.41452 0.0 -14.9679785 0.0 
  -4.746180114746093 -13.146700439453125 9.21989990234375 171.403 87.1399 -799.387 -1.13117 -14.7347 -2.66553 -6.19312 18.6604 4.86566 33.8397 54.0472 339.364 -75.1429 -77.6892 653.215 -113.9167 -4.75824 365.61 -47.1272 11.1934 4.58835 0.0 18.6293 0.0 22.7555 -17.2266 4.34214 0.0 0.0 0.0 0.0 0.0 0.0 119.7288 -6.60179 -363.161 46.3634 2.67728 -361.831 0.0 21.2098 0.0 5.98778 -10.1487 16.677 0.0 0.0 0.0 0.0 0.0 0.0 -5.10211 0.0558566 -721.791 0.0 17.5533 0.0 -2.04874 -1.4724007 16.3788 0.0 -34.0046 0.0 0.503862 -4.5801 24.7206 0.0 26.832 0.0 35.4546 -18.905499 -6.40829 0.0 -14.938607 0.0 
  -4.736319885253907 -13.154100341796875 9.219420166015626 171.977 87.1881 -800.025 -1.15907 -14.853 -2.72286 -6.10437 18.6459 4.83754 33.7834 54.0661 339.413 -75.104 -77.6631 653.294 -113.9452 -4.8019 365.624 -47.1278 11.2933 4.66599 0.0 18.7457 0.0 22.7097 -17.323 5.17843 0.0 0.0 0.0 0.0 0.0 0.0 119.6983 -6.55886 -363.24 46.3283 2.75267 -361.853 0.0 21.354 0.0 5.96023 -10.124 16.7896 0.0 0.0 0.0 0.0 0.0 0.0 -5.06847 0.105938 -722.116 0.0 17.5198 0.0 -2.184 -1.5632 16.7108 0.0 -33.9908 0.0 0.572259 -4.53567 24.7124 0.0 26.758 0.0 35.3966 -18.8867 -6.38212 0.0 -14.9257345 0.0 
  -4.731260070800781 -13.164100341796875 9.218159790039062 171.42 87.2875 -799.364 -1.21506 -14.7966 -2.87091 -5.93777 18.5223 4.73017 33.8468 54.0694 339.334 -75.2372 -77.6622 653.198 -113.9981 -4.83584 365.658 -47.1005 11.3744 4.66877 0.0 18.897 0.0 23.6568 -16.6594 6.4279 0.0 0.0 0.0 0.0 0.0 0.0 119.6957 -6.53991 -363.252 46.2787 2.80752 -361.866 0.0 21.4863 0.0 6.01436 -10.1048 16.7085 0.0 0.0 0.0 0.0 0.0 0.0 -4.94614 -0.0235182 -722.377 0.0 17.854 0.0 -2.23442 -1.7479 16.8942 0.0 -33.8739 0.0 0.713772 -4.44572 24.5851 0.0 26.6737 0.0 35.3052 -18.877201 -6.4297 0.0 -14.894308 0.0 
  -4.7209100341796875 -13.17280029296875 9.218400268554687 172.166 87.3391 -800.182 -1.22249 -14.9735 -2.87031 -5.8858 18.6052 4.75994 33.8786 54.0006 339.294 -75.1388 -77.6943 653.282 -113.9564 -4.76705 365.641 -47.1318 11.3975 4.80953 0.0 18.9358 0.0 23.2143 -16.688 4.5007 0.0 0.0 0.0 0.0 0.0 0.0 119.7005 -6.57596 -363.174 46.2723 2.8645 -361.964 0.0 21.6377 0.0 5.92006 -10.11 16.542 0.0 0.0 0.0 0.0 0.0 0.0 -4.88767 0.01069 -722.568 0.0 17.828 0.0 -2.50362 -1.8817997 17.0773 0.0 -33.8199 0.0 0.789579 -4.38205 24.6021 0.0 26.5486 0.0 35.2392 -18.8563 -6.43756 0.0 -14.877781 0.0 
  -4.716709899902344 -13.1831005859375 9.216389770507812 170.895 87.4763 -798.743 -1.22854 -14.8556 -3.03328 -5.76027 18.4578 4.58861 33.9317 53.9706 339.249 -75.0706 -77.727 653.376 -113.9469 -4.7597 365.543 -47.182 11.3074 4.81211 0.0 18.9265 0.0 23.1641 -16.6405 4.73126 0.0 0.0 0.0 0.0 0.0 0.0 119.7121 -6.55849 -363.165 46.2539 2.9136 -362.047 0.0 21.794 0.0 5.87602 -10.0704 16.7073 0.0 0.0 0.0 0.0 0.0 0.0 -4.76662 -0.143724 -723.166 0.0 18.2574 0.0 -2.60938 -2.1515007 17.4927 0.0 -33.659 0.0 0.973072 -4.26122 24.4161 0.0 26.4566 0.0 35.1071 -18.855099 -6.53377 0.0 -14.820235 0.0 
  -4.707009887695312 -13.1897998046875 9.215570068359375 172.082 87.5591 -800.042 -1.31469 -14.961 -3.17228 -5.46996 18.3664 4.54946 33.6938 54.1271 339.492 -75.3548 -77.6114 653.038 -114.1094 -4.89207 365.62 -47.2177 11.383 4.70072 0.0 18.8574 0.0 23.1308 -16.6375 4.85093 0.0 0.0 0.0 0.0 0.0 0.0 119.5743 -6.45978 -363.26 46.2178 2.95468 -362.084 0.0 21.9456 0.0 5.77572 -10.0217 16.4989 0.0 0.0 0.0 0.0 0.0 0.0 -4.73122 -0.150456 -723.565 0.0 18.2918 0.0 -2.47172 -2.1779995 18.0296 0.0 -33.6715 0.0 1.06426 -4.26909 24.3828 0.0 26.3988 0.0 35.0433 -18.793499 -6.47348 0.0 -14.819989 0.0 
  -4.6981900024414065 -13.1977001953125 9.215170288085938 171.435 87.6587 -799.437 -1.21246 -15.0445 -3.11587 -5.49368 18.4335 4.54824 33.968 53.931 339.171 -75.0616 -77.7125 653.381 -114.0561 -4.82125 365.61 -47.2795 11.3547 4.83058 0.0 18.777 0.0 23.1945 -16.5239 5.31647 0.0 0.0 0.0 0.0 0.0 0.0 119.6234 -6.53362 -363.195 46.2139 3.04337 -362.091 0.0 22.0936 0.0 5.71387 -9.9317 16.2738 0.0 0.0 0.0 0.0 0.0 0.0 -4.64707 -0.170627 -723.798 0.0 18.4727 0.0 -2.61702 -2.3456001 18.3165 0.0 -33.6007 0.0 1.17783 -4.14116 24.3517 0.0 26.2258 0.0 34.9671 -18.740799 -6.49174 0.0 -14.771417 0.0 
  -4.688290100097657 -13.20469970703125 9.2147998046875 171.236 87.7388 -799.366 -1.0946 -15.1327 -3.03544 -5.54459 18.4434 4.54734 34.084 53.8882 339.05 -75.0505 -77.7477 653.357 -114.0059 -4.79013 365.603 -47.3678 11.268 4.8356 0.0 18.686 0.0 23.2978 -16.4919 6.26151 0.0 0.0 0.0 0.0 0.0 0.0 119.6896 -6.55315 -363.208 46.1756 3.11882 -362.144 0.0 22.2718 0.0 5.6227 -9.8851 16.1133 0.0 0.0 0.0 0.0 0.0 0.0 -4.59094 -0.134531 -724.008 0.0 18.5362 0.0 -2.68805 -2.4629002 18.6756 0.0 -33.5284 0.0 1.274 -4.07069 24.3275 0.0 26.1236 0.0 34.8298 -18.6633 -6.49612 0.0 -14.7863 0.0 
  -4.6770498657226565 -13.2106005859375 9.214219970703125 173.67 87.8218 -802.016 -1.05782 -15.3442 -3.01005 -5.45921 18.4812 4.57725 34.15 53.8051 338.942 -74.9393 -77.7608 653.492 -114.0276 -4.84482 365.614 -47.4977 11.2146 4.74058 0.0 18.5594 0.0 23.4659 -16.6495 10.71 0.0 0.0 0.0 0.0 0.0 0.0 119.656296 -6.54409 -363.168 46.1346 3.15204 -362.314 0.0 22.4399 0.0 5.46769 -9.86035 15.7511 0.0 0.0 0.0 0.0 0.0 0.0 -4.53751 -0.208463 -723.951 0.0 18.6448 0.0 -2.70417 -2.5846996 18.9165 0.0 -33.4687 0.0 1.36514 -4.08155 24.5338 0.0 26.0022 0.0 34.7878 -18.6391 -6.49868 0.0 -14.764987 0.0 
  -4.664960021972656 -13.215400390625 9.2147900390625 171.67 87.9247 -800.258 -0.974224 -15.4307 -2.99947 -5.34556 18.5627 4.57508 34.0324 53.8337 339.078 -75.1362 -77.7487 653.259 -114.1381 -4.95865 365.626 -47.521 11.1603 4.89427 0.0 18.3615 0.0 21.9172 -17.4701 4.43395 0.0 0.0 0.0 0.0 0.0 0.0 119.614 -6.46548 -363.262 46.0459 3.24488 -362.421 0.0 22.5975 0.0 5.42222 -9.7602 15.8064 0.0 0.0 0.0 0.0 0.0 0.0 -4.4462 -0.0362738 -723.928 0.0 18.6058 0.0 -2.66487 -2.6618996 19.2213 0.0 -33.4239 0.0 1.47153 -3.85496 24.8124 0.0 25.722 0.0 34.7813 -18.5794 -6.55011 0.0 -14.81528 0.0 
  -4.65375 -13.223900146484375 9.214539794921874 170.549 87.978 -799.281 -0.975363 -15.4974 -2.98576 -5.27871 18.6041 4.61599 34.1739 53.7218 338.897 -74.9962 -77.7909 653.41 -114.1267 -4.92807 365.653 -47.6067 11.0335 4.91058 0.0 18.1644 0.0 21.9491 -17.2087 4.17277 0.0 0.0 0.0 0.0 0.0 0.0 119.6405 -6.51567 -363.213 46.006 3.26838 -362.58 0.0 22.7821 0.0 5.32749 -9.74301 15.5636 0.0 0.0 0.0 0.0 0.0 0.0 -4.37035 0.06189 -723.977 0.0 18.6385 0.0 -2.69269 -2.7520008 19.4174 0.0 -33.3619 0.0 1.56302 -3.65648 25.0691 0.0 25.4832 0.0 34.774 -18.6218 -6.63629 0.0 -14.772417 0.0 
  -4.64447998046875 -13.231099853515625 9.213670043945312 166.868 88.0235 -795.688 -0.980293 -15.3947 -3.08278 -5.19868 18.5365 4.52065 34.1573 53.7609 338.945 -75.1035 -77.8018 653.308 -114.15 -5.07551 365.556 -47.6948 10.8416 4.92355 0.0 17.963 0.0 21.8337 -16.964 3.03173 0.0 0.0 0.0 0.0 0.0 0.0 119.6427 -6.4337 -363.227 45.9743 3.27941 -362.691 0.0 22.8897 0.0 5.22394 -9.68702 15.2266 0.0 0.0 0.0 0.0 0.0 0.0 -4.29672 0.220061 -724.086 0.0 18.6886 0.0 -2.74868 -2.8707008 19.6353 0.0 -33.3235 0.0 1.66941 -3.49739 25.011 0.0 25.4651 0.0 34.6535 -18.5696 -6.6382 0.0 -14.771411 0.0 
  -4.635270080566406 -13.238900146484376 9.212930297851562 166.851 88.0936 -795.816 -1.1763 -15.4379 -3.31924 -4.80272 18.5106 4.48818 33.9055 53.8089 339.17 -75.243 -77.7083 653.105 -114.3109 -5.26617 365.572 -47.8468 10.7638 4.71785 0.0 17.6673 0.0 21.9168 -16.4928 2.61091 0.0 0.0 0.0 0.0 0.0 0.0 119.4888 -6.32516 -363.335 45.9215 3.33101 -362.774 0.0 23.0184 0.0 5.18952 -9.65087 14.9505 0.0 0.0 0.0 0.0 0.0 0.0 -4.20775 0.256039 -724.074 0.0 18.7276 0.0 -2.80398 -2.9815998 19.7616 0.0 -33.287598 0.0 1.78381 -3.42464 25.1804 0.0 25.3582 0.0 34.6668 -18.578602 -6.66572 0.0 -14.760137 0.0 
  -4.627109985351563 -13.24449951171875 9.212670288085938 166.892 88.1616 -795.956 -0.969045 -15.5007 -3.15346 -5.09748 18.5351 4.45568 34.297 53.6166 338.813 -74.7465 -77.9 653.629 -114.0462 -5.24144 365.531 -48.2289 10.6986 4.1752 0.0 17.1837 0.0 22.4563 -16.0255 2.59234 0.0 0.0 0.0 0.0 0.0 0.0 119.6744 -6.37462 -363.255 45.8975 3.32937 -362.898 0.0 23.1279 0.0 5.20739 -9.64464 15.1997 0.0 0.0 0.0 0.0 0.0 0.0 -4.14556 0.260234 -724.173 0.0 18.816 0.0 -2.88079 -3.0874004 19.9281 0.0 -33.2649 0.0 1.8514 -3.35971 25.1864 0.0 25.2398 0.0 34.6374 -18.516602 -6.62639 0.0 -14.776761 0.0 
  -4.618680114746094 -13.2506005859375 9.212379760742188 165.651 88.2127 -794.831 -1.01765 -15.501 -3.22245 -4.9317 18.5074 4.45216 34.2497 53.6433 338.845 -74.8667 -77.8619 653.437 -114.143295 -5.25135 365.591 -48.0985 10.4737 4.72891 0.0 17.05 0.0 21.2444 -16.9569 3.35064 0.0 0.0 0.0 0.0 0.0 0.0 119.6203 -6.35123 -363.354 45.8826 3.37208 -362.919 0.0 23.1944 0.0 5.20977 -9.59186 15.2844 0.0 0.0 0.0 0.0 0.0 0.0 -4.06058 0.339482 -724.112 0.0 18.8399 0.0 -2.94744 -3.1823997 19.968 0.0 -33.2118 0.0 1.93749 -3.24568 25.3046 0.0 25.1311 0.0 34.5004 -18.515598 -6.73028 0.0 -14.672157 0.0 
  -4.609809875488281 -13.259100341796875 9.212000122070313 169.408 88.2639 -798.694 -1.17084 -15.6261 -3.36533 -4.72866 18.4464 4.43892 34.1952 53.6666 338.883 -74.9203 -77.8258 653.396 -114.2041 -5.36524 365.527 -48.1851 10.2855 4.77472 0.0 16.7147 0.0 21.158 -17.0704 3.67359 0.0 0.0 0.0 0.0 0.0 0.0 119.5501 -6.34526 -363.34 45.9211 3.37845 -362.966 0.0 23.1697 0.0 5.1946 -9.56356 15.3032 0.0 0.0 0.0 0.0 0.0 0.0 -3.9697 0.291168 -723.951 0.0 18.8213 0.0 -2.98872 -3.229601 19.8747 0.0 -33.210197 0.0 2.01496 -3.29476 25.4165 0.0 25.0673 0.0 34.4222 -18.5424 -6.79286 0.0 -14.660067 0.0 
  -4.60125 -13.2652001953125 9.211530151367187 169.534 88.2746 -798.989 -1.24194 -15.6329 -3.40162 -4.6294 18.3705 4.46376 34.2377 53.683 338.824 -74.9192 -77.8075 653.429 -114.2077 -5.40451 365.584 -48.3398 10.1493 4.51666 0.0 16.3422 0.0 21.1752 -16.9545 4.0486 0.0 0.0 0.0 0.0 0.0 0.0 119.524704 -6.34997 -363.388 45.9521 3.40232 -362.931 0.0 23.1262 0.0 5.20624 -9.58321 15.2934 0.0 0.0 0.0 0.0 0.0 0.0 -3.90385 0.38209 -723.711 0.0 18.7674 0.0 -3.04768 -3.276699 19.7602 0.0 -33.1851 0.0 2.06704 -3.24637 25.5837 0.0 25.0234 0.0 34.4668 -18.560799 -6.7567 0.0 -14.688434 0.0 
  -4.592829895019531 -13.26969970703125 9.21114013671875 170.245 88.2718 -799.876 -1.23883 -15.6791 -3.37471 -4.64681 18.3485 4.48378 34.1373 53.672 338.914 -74.822 -77.7865 653.568 -114.1785 -5.44668 365.57 -48.4395 9.98783 4.40546 0.0 16.0317 0.0 20.9183 -17.0773 4.32431 0.0 0.0 0.0 0.0 0.0 0.0 119.4998 -6.35966 -363.122 46.0246 3.20054 -363.147 0.0 23.0955 0.0 5.23304 -9.60082 15.401 0.0 0.0 0.0 0.0 0.0 0.0 -3.86039 0.476435 -723.446 0.0 18.6773 0.0 -3.10259 -3.3073006 19.6288 0.0 -33.1707 0.0 2.09141 -3.25199 25.6755 0.0 25.0504 0.0 34.3788 -18.553001 -6.7349 0.0 -14.685419 0.0 
  -4.584719848632813 -13.274000244140625 9.2106201171875 170.979 88.2535 -800.802 -1.35465 -15.6745 -3.45893 -4.48527 18.2433 4.49815 33.8101 53.8017 339.253 -75.0221 -77.6824 653.42 -114.2522 -5.5752 365.559 -48.518 9.81307 4.26375 0.0 15.7537 0.0 20.6257 -17.0655 4.22263 0.0 0.0 0.0 0.0 0.0 0.0 119.446 -6.31768 -363.19 46.0091 3.1597 -363.147 0.0 23.088 0.0 5.2959 -9.62944 15.4234 0.0 0.0 0.0 0.0 0.0 0.0 -3.8291 0.592562 -723.141 0.0 18.5414 0.0 -3.12662 -3.3068008 19.4883 0.0 -33.179398 0.0 2.10315 -3.27664 25.745 0.0 25.1069 0.0 34.3563 -18.5349 -6.64766 0.0 -14.669753 0.0 
